<?xml version="1.0" encoding="UTF-8"?>
<svg width="54px" height="53px" viewBox="0 0 54 53" version="1.1" xmlns="http://www.w3.org/2000/svg" xmlns:xlink="http://www.w3.org/1999/xlink">
    <!-- Generator: Sketch 51.3 (57544) - http://www.bohemiancoding.com/sketch -->
    <title>check-circle</title>
    <desc>Created with Sketch.</desc>
    <defs></defs>
    <g id="Page-1" stroke="none" stroke-width="1" fill="none" fill-rule="evenodd">
        <g id="Artboard" transform="translate(-568.000000, -66.000000)" fill="#38D15D">
            <path d="M621.156123,92.7500483 C621.156123,97.4609751 619.978391,101.820339 617.622929,105.828142 C615.267466,109.835945 612.085832,113.017579 608.078029,115.373041 C604.070227,117.728504 599.710862,118.906236 594.999936,118.906236 C590.289009,118.906236 585.929645,117.728504 581.921842,115.373041 C577.914039,113.017579 574.732405,109.835945 572.376943,105.828142 C570.02148,101.820339 568.843748,97.4609751 568.843748,92.7500483 C568.843748,88.0391215 570.02148,83.6797574 572.376943,79.6719545 C574.732405,75.6641515 577.914039,72.4825179 581.921842,70.1270553 C585.929645,67.7715927 590.289009,66.5938606 594.999936,66.5938606 C599.710862,66.5938606 604.070227,67.7715927 608.078029,70.1270553 C612.085832,72.4825179 615.267466,75.6641515 617.622929,79.6719545 C619.978391,83.6797574 621.156123,88.0391215 621.156123,92.7500483 Z M591.941349,106.566422 L611.347553,87.1602179 C611.699114,86.878968 611.874895,86.4922512 611.874895,86.0000644 C611.874895,85.5078775 611.699114,85.1211608 611.347553,84.8399109 L609.027246,82.4141354 C608.675685,82.0625743 608.271388,81.8867929 607.814358,81.8867929 C607.357329,81.8867929 606.953032,82.0625743 606.60147,82.4141354 L590.781196,98.2344102 L583.398401,90.8516153 C583.04684,90.5000542 582.642543,90.3242728 582.185513,90.3242728 C581.728483,90.3242728 581.324186,90.5000542 580.972625,90.8516153 L578.652318,93.2773908 C578.300757,93.5586406 578.124976,93.9453574 578.124976,94.4375443 C578.124976,94.9297311 578.300757,95.3164479 578.652318,95.5976977 L589.621042,106.566422 C589.902292,106.917983 590.289009,107.093764 590.781196,107.093764 C591.273383,107.093764 591.660099,106.917983 591.941349,106.566422 Z" id="check-circle"></path>
        </g>
    </g>
</svg>