<?xml version="1.0" encoding="UTF-8"?>
<svg width="54px" height="53px" viewBox="0 0 54 53" version="1.1" xmlns="http://www.w3.org/2000/svg" xmlns:xlink="http://www.w3.org/1999/xlink">
    <!-- Generator: Sketch 51.3 (57544) - http://www.bohemiancoding.com/sketch -->
    <title>times-circle</title>
    <desc>Created with Sketch.</desc>
    <defs></defs>
    <g id="Page-1" stroke="none" stroke-width="1" fill="none" fill-rule="evenodd">
        <g id="Artboard" transform="translate(-568.000000, -166.000000)" fill="#868686">
            <path d="M594.999936,166.593861 C599.710862,166.593861 604.070227,167.771593 608.078029,170.127055 C612.085832,172.482518 615.267466,175.664152 617.622929,179.671954 C619.978391,183.679757 621.156123,188.039121 621.156123,192.750048 C621.156123,197.460975 619.978391,201.820339 617.622929,205.828142 C615.267466,209.835945 612.085832,213.017579 608.078029,215.373041 C604.070227,217.728504 599.710862,218.906236 594.999936,218.906236 C590.289009,218.906236 585.929645,217.728504 581.921842,215.373041 C577.914039,213.017579 574.732405,209.835945 572.376943,205.828142 C570.02148,201.820339 568.843748,197.460975 568.843748,192.750048 C568.843748,188.039121 570.02148,183.679757 572.376943,179.671954 C574.732405,175.664152 577.914039,172.482518 581.921842,170.127055 C585.929645,167.771593 590.289009,166.593861 594.999936,166.593861 Z M607.867092,199.605501 L600.906172,192.750048 L607.867092,185.894596 C608.078029,185.613346 608.183498,185.314519 608.183498,184.998114 C608.183498,184.681708 608.078029,184.382881 607.867092,184.101631 L603.648353,179.882891 C603.437416,179.671954 603.156166,179.566486 602.804605,179.566486 C602.453043,179.566486 602.136638,179.671954 601.855388,179.882891 L594.999936,186.843812 L588.144483,179.882891 C587.863233,179.671954 587.564406,179.566486 587.248001,179.566486 C586.931595,179.566486 586.632769,179.671954 586.351519,179.882891 L582.132779,184.101631 C581.921842,184.312568 581.816373,184.593818 581.816373,184.945379 C581.816373,185.296941 581.921842,185.613346 582.132779,185.894596 L589.0937,192.750048 L582.132779,199.605501 C581.921842,199.886751 581.816373,200.185577 581.816373,200.501983 C581.816373,200.818388 581.921842,201.117215 582.132779,201.398465 L586.351519,205.617205 C586.562456,205.828142 586.843706,205.933611 587.195267,205.933611 C587.546828,205.933611 587.863233,205.828142 588.144483,205.617205 L594.999936,198.656284 L601.855388,205.617205 C602.136638,205.828142 602.435465,205.933611 602.75187,205.933611 C603.068276,205.933611 603.367103,205.828142 603.648353,205.617205 L607.867092,201.398465 C608.078029,201.187528 608.183498,200.906278 608.183498,200.554717 C608.183498,200.203156 608.078029,199.886751 607.867092,199.605501 Z" id="times-circle"></path>
        </g>
    </g>
</svg>